# xmcd CD database file
#
# Track frame offsets:
#	150
#	4855
#	35305
#	55670
#	80575
#	104252
#	125795
#	149122
#	171955
#	193807
#
# Disc length: 3099 seconds
#
# Revision: 1
# Processed by: cddbd v1.5.1PL0 Copyright (c) Steve Scherf et al.
# Submitted via: CDex 1.51
#
DISCID=8e0c190a
DTITLE=MYSTIC PROPHECY - Vengeance
DYEAR=2001
DGENRE=Metal
TTITLE0=1545 The Beginning
TTITLE1=Sky's Burning
TTITLE2=Damnation And Darkness
TTITLE3=Welcome In The Damned Circle
TTITLE4=Dark Side Of The Moon
TTITLE5=River Of Hate
TTITLE6=In The Mirror
TTITLE7=In The Distance
TTITLE8=When Shadows Fall
TTITLE9=Fallen Angel
EXTD=YEAR: 2001
EXTT0=
EXTT1=
EXTT2=
EXTT3=
EXTT4=
EXTT5=
EXTT6=
EXTT7=
EXTT8=
EXTT9=
PLAYORDER=
